<?xml version="1.0" standalone="no"?>
<!DOCTYPE svg PUBLIC "-//W3C//DTD SVG 20010904//EN"
 "http://www.w3.org/TR/2001/REC-SVG-20010904/DTD/svg10.dtd">
<svg version="1.0" xmlns="http://www.w3.org/2000/svg"
 width="256.000000pt" height="240.000000pt" viewBox="0 0 256.000000 240.000000"
 preserveAspectRatio="xMidYMid meet">

<g transform="translate(0.000000,240.000000) scale(0.100000,-0.100000)"
fill="#000000" stroke="none">
<path d="M1135 2393 c-564 -71 -1002 -454 -1111 -973 -22 -109 -23 -333 0
-438 23 -105 60 -210 106 -302 l40 -80 0 -174 0 -175 26 -20 c25 -19 40 -21
195 -21 l169 0 92 -49 c202 -107 384 -151 626 -151 242 0 418 41 622 146 l105
53 187 3 c164 3 190 5 205 21 16 15 19 44 23 230 l6 212 32 67 c141 295 132
669 -23 973 -182 355 -543 608 -957 669 -95 14 -266 19 -343 9z m408 -94 c133
-27 281 -85 397 -157 114 -70 277 -222 349 -327 205 -296 252 -665 126 -995
-14 -36 -29 -71 -33 -78 -7 -9 -80 -12 -332 -10 l-324 3 -6 31 c-18 85 -78
134 -164 134 -91 0 -141 -39 -166 -128 -11 -42 -11 -42 -59 -42 l-48 0 -7 39
c-7 44 -44 94 -87 116 -40 21 -127 19 -165 -4 -36 -22 -69 -72 -79 -118 l-7
-33 -349 -2 c-192 -1 -361 -2 -376 -2 -26 -1 -31 6 -62 83 -56 142 -74 251
-68 431 4 131 9 169 31 245 60 198 152 350 299 492 126 122 233 193 387 256
229 94 492 118 743 66z m-374 -1495 c19 -16 31 -35 31 -50 0 -24 -2 -24 -90
-24 -80 0 -90 2 -90 18 0 24 28 62 54 72 37 15 64 11 95 -16z m426 10 c28 -13
55 -53 55 -80 0 -2 -43 -4 -95 -4 -101 0 -106 3 -81 49 14 25 51 50 74 51 8 0
29 -7 47 -16z m745 -349 l0 -185 -1050 0 -1050 0 0 185 0 185 1050 0 1050 0 0
-185z m-532 -276 c-66 -34 -214 -79 -315 -94 -129 -20 -316 -19 -434 1 -93 16
-302 83 -322 103 -8 8 156 11 549 11 l559 -1 -37 -20z"/>
<path d="M383 1863 c-73 -5 -76 -10 -71 -107 2 -43 8 -62 21 -70 29 -19 52 4
55 58 l3 46 84 0 84 0 19 -52 c61 -162 292 -750 302 -767 11 -21 16 -21 448
-21 240 0 442 4 448 8 10 6 145 346 195 491 20 58 24 97 10 105 -8 6 -972 140
-1084 152 -52 5 -65 3 -77 -11 -19 -23 -2 -48 41 -57 19 -5 258 -39 532 -77
274 -38 500 -71 503 -74 3 -2 -33 -105 -79 -228 l-85 -224 -173 -6 c-264 -9
-607 -5 -620 8 -5 5 -50 113 -98 239 -128 331 -222 568 -229 575 -10 9 -154
16 -229 12z"/>
<path d="M1070 1453 c-119 -45 -148 -226 -53 -326 73 -76 237 -56 283 34 11
21 20 40 20 43 0 3 -21 12 -47 19 l-47 14 -21 -31 c-28 -41 -85 -49 -109 -14
-23 32 -22 129 2 159 25 30 78 31 103 0 16 -19 25 -22 59 -16 22 4 43 11 46
16 10 17 -31 74 -66 91 -34 18 -136 24 -170 11z"/>
<path d="M1446 1437 c-55 -31 -80 -84 -80 -167 0 -105 51 -172 140 -186 97
-14 163 12 200 81 22 41 16 50 -45 61 -29 6 -36 3 -58 -25 -27 -34 -65 -41
-98 -17 -28 20 -34 133 -9 163 31 36 66 39 102 8 26 -22 38 -25 64 -20 58 13
61 18 36 56 -32 47 -80 69 -153 69 -44 0 -71 -6 -99 -23z"/>
<path d="M450 476 l0 -166 115 0 c156 0 185 15 185 95 0 24 -7 39 -26 54 l-25
20 21 29 c19 26 21 34 11 64 -6 18 -20 39 -31 45 -10 7 -71 16 -135 19 l-115
7 0 -167z m174 79 c24 -25 9 -45 -35 -45 -34 0 -39 3 -39 23 0 13 3 27 7 30
12 12 51 7 67 -8z m14 -124 c8 -5 12 -17 10 -27 -2 -15 -14 -20 -51 -22 -46
-3 -47 -3 -47 27 0 29 2 31 38 31 20 0 43 -4 50 -9z"/>
<path d="M804 627 c-14 -37 -1 -52 46 -52 42 0 45 2 42 25 -5 31 -3 30 -46 37
-27 4 -37 2 -42 -10z"/>
<path d="M1245 626 c-41 -18 -85 -71 -86 -104 -6 -159 25 -207 146 -219 65 -7
118 15 145 59 25 42 25 47 -2 57 -59 22 -63 21 -80 -9 -17 -31 -56 -40 -86
-22 -33 21 -35 118 -4 155 20 23 65 22 87 -3 15 -16 26 -19 54 -14 52 9 55 17
25 54 -48 57 -131 76 -199 46z"/>
<path d="M1008 607 c-21 -12 -38 -30 -38 -39 0 -10 -7 -18 -15 -18 -10 0 -15
-11 -15 -35 0 -24 5 -35 15 -35 11 0 15 -13 15 -54 0 -69 16 -112 43 -120 35
-9 82 -7 94 5 16 16 4 59 -18 59 -13 0 -20 10 -24 34 -10 49 -3 71 23 74 33 5
31 57 -3 66 -21 5 -25 12 -25 46 0 22 -3 40 -7 40 -5 -1 -25 -11 -45 -23z"/>
<path d="M2083 607 c-26 -13 -43 -28 -43 -38 0 -21 -24 -31 -56 -23 -15 4 -34
0 -48 -10 -14 -8 -26 -11 -28 -6 -2 5 -21 10 -43 12 l-40 3 -3 -117 -3 -118
44 0 44 0 6 65 c8 79 21 109 48 102 14 -4 24 3 34 21 14 26 14 26 15 5 0 -13
6 -23 14 -23 9 0 15 -21 19 -72 5 -58 11 -77 28 -91 24 -19 104 -24 114 -6 13
19 -4 59 -25 59 -18 0 -20 7 -20 55 0 52 1 55 25 55 20 0 25 5 25 26 0 19 -7
28 -29 35 -25 9 -30 17 -33 48 l-3 38 -42 -20z"/>
<path d="M807 544 c-4 -4 -7 -58 -7 -121 l0 -113 48 0 47 0 -2 117 -2 118 -38
3 c-21 2 -42 0 -46 -4z"/>
<path d="M1563 535 c-17 -7 -36 -23 -43 -34 -18 -35 6 -38 118 -15 25 5 32 3
32 -9 0 -11 -15 -20 -42 -27 -93 -24 -109 -32 -119 -58 -26 -69 65 -118 143
-78 16 9 30 11 33 5 4 -5 24 -9 46 -9 l39 0 -1 53 c0 28 -4 75 -7 102 -6 44
-11 52 -42 67 -42 21 -113 23 -157 3z m117 -135 c0 -18 -41 -51 -58 -48 -27 5
-27 37 0 47 31 13 58 13 58 1z"/>
</g>
</svg>
