<?xml version="1.0" encoding="utf-8"?>
<!-- Generator: Adobe Illustrator 23.0.6, SVG Export Plug-In . SVG Version: 6.00 Build 0)  -->
<svg version="1.1" id="Layer_1" xmlns="http://www.w3.org/2000/svg" xmlns:xlink="http://www.w3.org/1999/xlink" x="0px" y="0px"
	 viewBox="0 0 256 240" style="enable-background:new 0 0 256 240;" xml:space="preserve">
<style type="text/css">
	.st0{fill:#FFFFFF;}
</style>
<g>
	<path class="st0" d="M245.8,165.8l-3.2,6.7l-0.6,21.2c-0.4,18.6-0.7,21.5-2.3,23c-1.5,1.6-4.1,1.8-20.5,2.1l-18.7,0.3l-10.5,5.3
		c-20.4,10.5-38,14.6-62.2,14.6s-42.4-4.4-62.6-15.1L56,219H39.1c-15.5,0-17-0.2-19.5-2.1l-2.6-2V180l-4-8
		c-4.6-9.2-8.3-19.7-10.6-30.2c-2.3-10.5-2.2-32.9,0-43.8C13.3,46.1,57.1,7.8,113.5,0.7c7.7-1,24.8-0.5,34.3,0.9
		c41.4,6.1,77.5,31.4,95.7,66.9C259,98.9,259.9,136.3,245.8,165.8z"/>
	<g transform="translate(0.000000,240.000000) scale(0.100000,-0.100000)">
		<path d="M2435,1715c-182,355-543,608-957,669c-95,14-266,19-343,9c-564-71-1002-454-1111-973c-22-109-23-333,0-438
			c23-105,60-210,106-302l40-80V251l26-20c25-19,40-21,195-21h169l92-49C854,54,1036,10,1278,10s418,41,622,146l105,53l187,3
			c164,3,190,5,205,21c16,15,19,44,23,230l6,212l32,67C2599,1037,2590,1411,2435,1715z M1808,189c-66-34-214-79-315-94
			c-129-20-316-19-434,1c-93,16-302,83-322,103c-8,8,156,11,549,11l559-1L1808,189z M2340,280H240v370h2100V280z M1020,748
			c0,24,28,62,54,72c37,15,64,11,95-16c19-16,31-35,31-50c0-24-2-24-90-24C1030,730,1020,732,1020,748z M1474,779c14,25,51,50,74,51
			c8,0,29-7,47-16c28-13,55-53,55-80c0-2-43-4-95-4C1454,730,1449,733,1474,779z M2415,820c-14-36-29-71-33-78c-7-9-80-12-332-10
			l-324,3l-6,31c-18,85-78,134-164,134c-91,0-141-39-166-128c-11-42-11-42-59-42h-48l-7,39c-7,44-44,94-87,116c-40,21-127,19-165-4
			c-36-22-69-72-79-118l-7-33l-349-2c-192-1-361-2-376-2c-26-1-31,6-62,83c-56,142-74,251-68,431c4,131,9,169,31,245
			c60,198,152,350,299,492c126,122,233,193,387,256c229,94,492,118,743,66c133-27,281-85,397-157c114-70,277-222,349-327
			C2494,1519,2541,1150,2415,820z"/>
		<path d="M383,1863c-73-5-76-10-71-107c2-43,8-62,21-70c29-19,52,4,55,58l3,46h84h84l19-52c61-162,292-750,302-767
			c11-21,16-21,448-21c240,0,442,4,448,8c10,6,145,346,195,491c20,58,24,97,10,105c-8,6-972,140-1084,152c-52,5-65,3-77-11
			c-19-23-2-48,41-57c19-5,258-39,532-77s500-71,503-74c3-2-33-105-79-228l-85-224l-173-6c-264-9-607-5-620,8c-5,5-50,113-98,239
			c-128,331-222,568-229,575C602,1860,458,1867,383,1863z"/>
		<path d="M1070,1453c-119-45-148-226-53-326c73-76,237-56,283,34c11,21,20,40,20,43s-21,12-47,19l-47,14l-21-31
			c-28-41-85-49-109-14c-23,32-22,129,2,159c25,30,78,31,103,0c16-19,25-22,59-16c22,4,43,11,46,16c10,17-31,74-66,91
			C1206,1460,1104,1466,1070,1453z"/>
		<path d="M1446,1437c-55-31-80-84-80-167c0-105,51-172,140-186c97-14,163,12,200,81c22,41,16,50-45,61c-29,6-36,3-58-25
			c-27-34-65-41-98-17c-28,20-34,133-9,163c31,36,66,39,102,8c26-22,38-25,64-20c58,13,61,18,36,56c-32,47-80,69-153,69
			C1501,1460,1474,1454,1446,1437z"/>
		<path d="M724,459l-25,20l21,29c19,26,21,34,11,64c-6,18-20,39-31,45c-10,7-71,16-135,19l-115,7V310h115c156,0,185,15,185,95
			C750,429,743,444,724,459z M557,563c12,12,51,7,67-8c24-25,9-45-35-45c-34,0-39,3-39,23C550,546,553,560,557,563z M648,404
			c-2-15-14-20-51-22c-46-3-47-3-47,27c0,29,2,31,38,31c20,0,43-4,50-9C646,426,650,414,648,404z"/>
		<path d="M804,627c-14-37-1-52,46-52c42,0,45,2,42,25c-5,31-3,30-46,37C819,641,809,639,804,627z"/>
		<path d="M1245,626c-41-18-85-71-86-104c-6-159,25-207,146-219c65-7,118,15,145,59c25,42,25,47-2,57c-59,22-63,21-80-9
			c-17-31-56-40-86-22c-33,21-35,118-4,155c20,23,65,22,87-3c15-16,26-19,54-14c52,9,55,17,25,54C1396,637,1313,656,1245,626z"/>
		<path d="M1008,607c-21-12-38-30-38-39c0-10-7-18-15-18c-10,0-15-11-15-35s5-35,15-35c11,0,15-13,15-54c0-69,16-112,43-120
			c35-9,82-7,94,5c16,16,4,59-18,59c-13,0-20,10-24,34c-10,49-3,71,23,74c33,5,31,57-3,66c-21,5-25,12-25,46c0,22-3,40-7,40
			C1048,629,1028,619,1008,607z"/>
		<path d="M2083,607c-26-13-43-28-43-38c0-21-24-31-56-23c-15,4-34,0-48-10c-14-8-26-11-28-6s-21,10-43,12l-40,3l-3-117l-3-118h44
			h44l6,65c8,79,21,109,48,102c14-4,24,3,34,21c14,26,14,26,15,5c0-13,6-23,14-23c9,0,15-21,19-72c5-58,11-77,28-91
			c24-19,104-24,114-6c13,19-4,59-25,59c-18,0-20,7-20,55c0,52,1,55,25,55c20,0,25,5,25,26c0,19-7,28-29,35c-25,9-30,17-33,48l-3,38
			L2083,607z"/>
		<path d="M807,544c-4-4-7-58-7-121V310h48h47l-2,117l-2,118l-38,3C832,550,811,548,807,544z"/>
		<path d="M1769,363c0,28-4,75-7,102c-6,44-11,52-42,67c-42,21-113,23-157,3c-17-7-36-23-43-34c-18-35,6-38,118-15c25,5,32,3,32-9
			c0-11-15-20-42-27c-93-24-109-32-119-58c-26-69,65-118,143-78c16,9,30,11,33,5c4-5,24-9,46-9h39L1769,363z M1622,352
			c-27,5-27,37,0,47c31,13,58,13,58,1C1680,382,1639,349,1622,352z"/>
	</g>
</g>
</svg>
