<?xml version="1.0" encoding="utf-8"?>
<!-- Generator: Adobe Illustrator 22.0.1, SVG Export Plug-In . SVG Version: 6.00 Build 0)  -->
<svg version="1.1" id="Layer_1" xmlns="http://www.w3.org/2000/svg" xmlns:xlink="http://www.w3.org/1999/xlink" x="0px" y="0px"
	 viewBox="0 0 612 792" style="enable-background:new 0 0 612 792;" xml:space="preserve">
<style type="text/css">
	.st0{fill:none;stroke:#000000;stroke-width:10;stroke-miterlimit:10;}
	.st1{fill:none;}
	.st2{stroke:#000000;stroke-miterlimit:10;}
	.st3{font-family:'Arial-Black';}
	.st4{font-size:62px;}
	.st5{fill:none;stroke:#000000;stroke-width:10;stroke-linecap:round;stroke-linejoin:round;stroke-miterlimit:10;}
	.st6{font-family:'Arial-BoldMT';}
	.st7{font-size:72px;}
</style>
<ellipse class="st0" cx="305" cy="397.8" rx="166.3" ry="156.3"/>
<rect x="164.5" y="473.7" class="st1" width="287" height="52"/>
<text transform="matrix(1 0 0 1 187.4688 518.0583)" class="st2 st3 st4">BitCart</text>
<g id="Cart">
	<g id="Wheels_1_">
		<path class="st0" d="M264,462C264,462,264,461.9,264,462c0-10.9,7.9-19.8,17.5-19.8s17.5,8.9,17.5,19.7c0,0,0,0,0,0.1L264,462z"/>
		<path class="st0" d="M324,462C324,462,324,461.9,324,462c0-10.9,7.9-19.8,17.5-19.8s17.5,8.9,17.5,19.7c0,0,0,0,0,0.1L324,462z"/>
	</g>
	<polyline class="st5" points="179,328.7 179,313 210.7,313 255,425.7 367,425.7 394.7,354.7 247.3,333.3 	"/>
	<g id="CC">
		<text transform="matrix(1 0 0 1 313.4741 414.9482)" class="st2 st6 st7">C</text>
		<text transform="matrix(1 0 0 1 259.4741 414.9482)" class="st2 st6 st7">C</text>
	</g>
</g>
<path class="st0" d="M440,527H172c-6.6,0-12-5.4-12-12v-38c0-6.6,5.4-12,12-12h268c6.6,0,12,5.4,12,12v38
	C452,521.6,446.6,527,440,527z"/>
</svg>
